<svg width="181" height="268" viewBox="0 0 181 268" fill="none" xmlns="http://www.w3.org/2000/svg">
<path d="M175.351 79.3727C115.821 85.5488 120.195 176.058 155.573 224.296L138.645 227.769C138.645 227.769 70.5515 116.035 151.388 40.966C169.075 35.9527 191.708 57.1793 175.351 79.3727Z" fill="#271A45"/>
<path d="M5.64677 80.5312C65.1767 86.7052 60.8025 177.217 25.4271 225.454L42.355 228.93C42.355 228.93 110.444 117.196 29.6124 42.1288C11.9247 37.1112 -10.7081 58.3483 5.64677 80.5312Z" fill="#271A45"/>
<path d="M156.694 130.557H24.1296V142.189H156.694V130.557Z" fill="#271A45"/>
<path d="M119.382 11.5286C119.4 11.5096 119.423 11.4927 119.442 11.4759C90.0578 -14.2879 61.5208 11.379 61.5208 11.379L61.7284 11.5286H61.3049C62.426 14.0942 63.4038 16.6577 64.3359 19.2234C65.268 21.789 66.1358 24.3525 66.96 26.9182C67.3752 28.201 67.7696 29.4838 68.1703 30.7667C68.571 32.0495 68.9488 33.3302 69.3121 34.613L69.8685 36.5362L70.402 38.4615C70.7653 39.7422 71.0975 41.025 71.44 42.3078C74.1389 52.5683 76.327 62.8287 78.1435 73.0892C79.96 83.3497 81.3904 93.608 82.5032 103.868C82.6416 105.151 82.7744 106.433 82.9018 107.715L82.9952 108.677L83.0305 109.64L83.1031 111.563L83.2381 115.412L83.3585 119.258C83.5121 124.389 83.6304 129.519 83.7135 134.648C84.0332 155.169 83.782 175.687 82.7668 196.208C82.6395 198.774 82.5011 201.339 82.3516 203.903L82.1087 207.752C82.0298 209.034 81.9433 210.316 81.8492 211.598C81.4935 216.729 81.0742 221.859 80.5911 226.988C80.1081 232.116 79.5545 237.247 78.9303 242.379C78.6065 244.943 78.2743 247.509 77.8923 250.074C77.5311 252.558 77.1429 255.043 76.6903 257.527C76.6405 257.697 76.5969 257.87 76.5595 258.053C76.1754 257.811 89.1132 280.592 104.137 258.007C104.143 257.928 104.143 257.848 104.137 257.769H104.196C103.724 255.203 103.324 252.638 102.95 250.074C102.576 247.511 102.24 244.943 101.912 242.379C101.278 237.248 100.724 232.118 100.251 226.988C99.7777 221.858 99.3625 216.728 99.0054 211.598C98.912 210.315 98.8228 209.035 98.7459 207.752L98.4802 203.903C98.328 201.338 98.1896 198.773 98.065 196.208C97.0498 175.687 96.7986 155.169 97.1183 134.648C97.2014 129.518 97.3197 124.388 97.4733 119.258L97.5958 115.412L97.7308 111.563L97.8014 109.64L97.8366 108.677L97.9321 107.715C98.0595 106.434 98.1923 105.152 98.3307 103.868C99.4352 93.608 100.861 83.3476 102.69 73.0892C104.519 62.8309 106.689 52.5683 109.394 42.3078C109.741 41.025 110.071 39.7422 110.432 38.4615L110.967 36.5362L111.522 34.613C111.887 33.3302 112.282 32.0474 112.666 30.7667C113.05 29.4859 113.455 28.201 113.874 26.9182C114.704 24.3525 115.568 21.789 116.498 19.2234C117.428 16.6577 118.408 14.0942 119.531 11.5286H119.382Z" fill="#271A45"/>
</svg>
