{
  "accessors": [
    {
      "bufferView": 2,
      "componentType": 5126,
      "count": 4,
      "max": [
        167.02890014648438,
        167.02890014648438,
        0.0
      ],
      "min": [
        -167.02890014648438,
        -167.02890014648438,
        0.0
      ],
      "type": "VEC3"
    },
    {
      "bufferView": 2,
      "byteOffset": 48,
      "componentType": 5126,
      "count": 4,
      "max": [
        0.0,
        0.0,
        1.0
      ],
      "min": [
        0.0,
        0.0,
        1.0
      ],
      "type": "VEC3"
    },
    {
      "bufferView": 1,
      "componentType": 5126,
      "count": 4,
      "max": [
        1.0,
        1.0
      ],
      "min": [
        2.9802322387695313e-08,
        2.9802322387695313e-08
      ],
      "type": "VEC2"
    },
    {
      "bufferView": 0,
      "componentType": 5125,
      "count": 6,
      "type": "SCALAR"
    },
    {
      "bufferView": 2,
      "byteOffset": 96,
      "componentType": 5126,
      "count": 18896,
      "max": [
        91.73361206054688,
        34.949398040771484,
        71.42060852050781
      ],
      "min": [
        -36.69900131225586,
        -34.949405670166016,
        20.88279914855957
      ],
      "type": "VEC3"
    },
    {
      "bufferView": 2,
      "byteOffset": 226848,
      "componentType": 5126,
      "count": 18896,
      "max": [
        1.0,
        0.9999822974205017,
        1.0
      ],
      "min": [
        -1.0,
        -0.9999947547912598,
        -1.0
      ],
      "type": "VEC3"
    },
    {
      "bufferView": 1,
      "byteOffset": 32,
      "componentType": 5126,
      "count": 18896,
      "max": [
        0.9820301532745361,
        0.999500036239624
      ],
      "min": [
        0.0005000000237487257,
        0.0005000000237487257
      ],
      "type": "VEC2"
    },
    {
      "bufferView": 1,
      "byteOffset": 151200,
      "componentType": 5126,
      "count": 18896,
      "max": [
        7.996000289916992,
        7.887622833251953
      ],
      "min": [
        0.004000000189989805,
        0.004000000189989805
      ],
      "type": "VEC2"
    },
    {
      "bufferView": 1,
      "byteOffset": 302368,
      "componentType": 5126,
      "count": 18896,
      "max": [
        0.9820301532745361,
        0.999500036239624
      ],
      "min": [
        0.0005000000237487257,
        0.0005000000237487257
      ],
      "type": "VEC2"
    },
    {
      "bufferView": 0,
      "byteOffset": 24,
      "componentType": 5125,
      "count": 103914,
      "type": "SCALAR"
    },
    {
      "bufferView": 2,
      "byteOffset": 453600,
      "componentType": 5126,
      "count": 1852,
      "max": [
        83.5425033569336,
        26.006000518798828,
        3.743799924850464
      ],
      "min": [
        -28.534500122070313,
        -33.212398529052734,
        -0.31170010566711426
      ],
      "type": "VEC3"
    },
    {
      "bufferView": 2,
      "byteOffset": 475824,
      "componentType": 5126,
      "count": 1852,
      "max": [
        0.9999385476112366,
        0.9847810864448547,
        0.9994686841964722
      ],
      "min": [
        -0.9999385476112366,
        -0.9848252534866333,
        -1.0
      ],
      "type": "VEC3"
    },
    {
      "bufferView": 1,
      "byteOffset": 453536,
      "componentType": 5126,
      "count": 1852,
      "max": [
        0.9905652403831482,
        0.5441727042198181
      ],
      "min": [
        0.012511812150478363,
        0.004503939766436815
      ],
      "type": "VEC2"
    },
    {
      "bufferView": 1,
      "byteOffset": 468352,
      "componentType": 5126,
      "count": 1852,
      "max": [
        0.7492565512657166,
        0.8226022124290466
      ],
      "min": [
        0.049623239785432816,
        0.1192144975066185
      ],
      "type": "VEC2"
    },
    {
      "bufferView": 0,
      "byteOffset": 415680,
      "componentType": 5125,
      "count": 4968,
      "type": "SCALAR"
    },
    {
      "bufferView": 2,
      "byteOffset": 498048,
      "componentType": 5126,
      "count": 552,
      "max": [
        83.46890258789063,
        25.84760093688965,
        21.407201766967773
      ],
      "min": [
        -28.460899353027344,
        -33.005699157714844,
        3.1868999004364014
      ],
      "type": "VEC3"
    },
    {
      "bufferView": 2,
      "byteOffset": 504672,
      "componentType": 5126,
      "count": 552,
      "max": [
        0.9999867677688599,
        0.9833818078041077,
        1.0
      ],
      "min": [
        -0.9999868273735046,
        -0.9814184904098511,
        -0.999454915523529
      ],
      "type": "VEC3"
    },
    {
      "bufferView": 1,
      "byteOffset": 483168,
      "componentType": 5126,
      "count": 552,
      "max": [
        0.9905652403831482,
        0.9923157095909119
      ],
      "min": [
        0.031983911991119385,
        0.01651575043797493
      ],
      "type": "VEC2"
    },
    {
      "bufferView": 1,
      "byteOffset": 487584,
      "componentType": 5126,
      "count": 552,
      "max": [
        0.7635630369186401,
        0.8541552424430847
      ],
      "min": [
        0.2256481647491455,
        0.020968014374375343
      ],
      "type": "VEC2"
    },
    {
      "bufferView": 0,
      "byteOffset": 435552,
      "componentType": 5125,
      "count": 1488,
      "type": "SCALAR"
    }
  ],
  "asset": {
    "extras": {
      "author": "MADE.COM (https://sketchfab.com/made-it)",
      "license": "CC-BY-NC-4.0 (http://creativecommons.org/licenses/by-nc/4.0/)",
      "source": "https://sketchfab.com/3d-models/margot-2-seater-sofa-old-rose-velvet-b3d693a003c94f4e989c08fe08c3af8c",
      "title": "Margot 2 Seater Sofa, Old Rose Velvet"
    },
    "generator": "Sketchfab-12.68.0",
    "version": "2.0"
  },
  "bufferViews": [
    {
      "buffer": 0,
      "byteLength": 441504,
      "name": "floatBufferViews",
      "target": 34963
    },
    {
      "buffer": 0,
      "byteLength": 492000,
      "byteOffset": 441504,
      "byteStride": 8,
      "name": "floatBufferViews",
      "target": 34962
    },
    {
      "buffer": 0,
      "byteLength": 511296,
      "byteOffset": 933504,
      "byteStride": 12,
      "name": "floatBufferViews",
      "target": 34962
    }
  ],
  "buffers": [
    {
      "byteLength": 1444800,
      "uri": "scene.bin"
    }
  ],
  "images": [
    {
      "uri": "textures/FLOOR_baseColor.png"
    },
    {
      "uri": "textures/Velvet_baseColor.jpeg"
    },
    {
      "uri": "textures/Velvet_metallicRoughness.png"
    }
  ],
  "materials": [
    {
      "alphaMode": "BLEND",
      "doubleSided": true,
      "name": "FLOOR",
      "pbrMetallicRoughness": {
        "baseColorFactor": [
          0.0,
          0.0,
          0.0,
          1.0
        ],
        "baseColorTexture": {
          "index": 0
        },
        "metallicFactor": 0.0,
        "roughnessFactor": 0.8929713596
      }
    },
    {
      "doubleSided": true,
      "name": "Velvet",
      "occlusionTexture": {
        "index": 2
      },
      "pbrMetallicRoughness": {
        "baseColorTexture": {
          "index": 1
        },
        "metallicFactor": 0.0,
        "metallicRoughnessTexture": {
          "index": 2
        }
      }
    },
    {
      "doubleSided": true,
      "name": "Gold",
      "pbrMetallicRoughness": {
        "baseColorFactor": [
          1.0,
          0.5119478895124452,
          0.2482802702197365,
          1.0
        ],
        "roughnessFactor": 0.1148715184
      }
    },
    {
      "doubleSided": true,
      "name": "Wood",
      "pbrMetallicRoughness": {
        "baseColorTexture": {
          "index": 1
        },
        "metallicFactor": 0.0,
        "roughnessFactor": 0.5931783536585366
      }
    }
  ],
  "meshes": [
    {
      "name": "Plane001_FLOOR_0",
      "primitives": [
        {
          "attributes": {
            "NORMAL": 1,
            "POSITION": 0,
            "TEXCOORD_0": 2
          },
          "indices": 3,
          "material": 0,
          "mode": 4
        }
      ]
    },
    {
      "name": "Margot_2_Seater_Sofa__Velvet_0",
      "primitives": [
        {
          "attributes": {
            "NORMAL": 5,
            "POSITION": 4,
            "TEXCOORD_0": 6,
            "TEXCOORD_1": 7,
            "TEXCOORD_2": 8
          },
          "indices": 9,
          "material": 1,
          "mode": 4
        }
      ]
    },
    {
      "name": "Margot_2_Seater_Sofa_Gold_0",
      "primitives": [
        {
          "attributes": {
            "NORMAL": 11,
            "POSITION": 10,
            "TEXCOORD_0": 12,
            "TEXCOORD_1": 13
          },
          "indices": 14,
          "material": 2,
          "mode": 4
        }
      ]
    },
    {
      "name": "Margot_2_Seater_Sofa_Wood_0",
      "primitives": [
        {
          "attributes": {
            "NORMAL": 16,
            "POSITION": 15,
            "TEXCOORD_0": 17,
            "TEXCOORD_1": 18
          },
          "indices": 19,
          "material": 3,
          "mode": 4
        }
      ]
    }
  ],
  "nodes": [
    {
      "children": [
        1
      ],
      "matrix": [
        1.0,
        0.0,
        0.0,
        0.0,
        0.0,
        2.220446049250313e-16,
        -1.0,
        0.0,
        0.0,
        1.0,
        2.220446049250313e-16,
        0.0,
        0.0,
        0.0,
        0.0,
        1.0
      ],
      "name": "Sketchfab_model"
    },
    {
      "children": [
        2
      ],
      "matrix": [
        1.0,
        0.0,
        0.0,
        0.0,
        0.0,
        0.0,
        1.0,
        0.0,
        0.0,
        -1.0,
        0.0,
        0.0,
        0.0,
        0.0,
        0.0,
        1.0
      ],
      "name": "1abf27f775cd493aadefd3ea6e19b3f3.fbx"
    },
    {
      "children": [
        3,
        5
      ],
      "name": "RootNode"
    },
    {
      "children": [
        4
      ],
      "matrix": [
        1.0,
        0.0,
        0.0,
        0.0,
        0.0,
        2.220446049250313e-16,
        -1.0,
        0.0,
        0.0,
        1.0,
        2.220446049250313e-16,
        0.0,
        0.0,
        0.0,
        0.0,
        1.0
      ],
      "name": "Plane001"
    },
    {
      "mesh": 0,
      "name": "Plane001_FLOOR_0"
    },
    {
      "children": [
        6
      ],
      "matrix": [
        1.0,
        0.0,
        0.0,
        0.0,
        0.0,
        2.220446049250313e-16,
        -1.0,
        0.0,
        0.0,
        1.0,
        2.220446049250313e-16,
        0.0,
        0.0,
        0.41656264662742615,
        3.814697265625e-06,
        1.0
      ],
      "name": "Margot_2_Seater_Sofa"
    },
    {
      "children": [
        7,
        8,
        9
      ],
      "matrix": [
        1.0,
        0.0,
        -0.0,
        0.0,
        0.0,
        1.0,
        0.0,
        0.0,
        0.0,
        0.0,
        1.0,
        0.0,
        -27.517305374145508,
        3.814697265625e-06,
        0.0,
        1.0
      ],
      "name": "Object_6"
    },
    {
      "mesh": 1,
      "name": "Margot_2_Seater_Sofa__Velvet_0"
    },
    {
      "mesh": 2,
      "name": "Margot_2_Seater_Sofa_Gold_0"
    },
    {
      "mesh": 3,
      "name": "Margot_2_Seater_Sofa_Wood_0"
    }
  ],
  "samplers": [
    {
      "magFilter": 9729,
      "minFilter": 9987,
      "wrapS": 10497,
      "wrapT": 10497
    }
  ],
  "scene": 0,
  "scenes": [
    {
      "name": "Sketchfab_Scene",
      "nodes": [
        0
      ]
    }
  ],
  "textures": [
    {
      "sampler": 0,
      "source": 0
    },
    {
      "sampler": 0,
      "source": 1
    },
    {
      "sampler": 0,
      "source": 2
    }
  ]
}
